<svg width="128" height="128" viewBox="0 0 128 128" fill="none" xmlns="http://www.w3.org/2000/svg">
<mask id="mask0_2293_6632" style="mask-type:alpha" maskUnits="userSpaceOnUse" x="0" y="0" width="128" height="128">
<circle cx="64" cy="64" r="64" fill="#D9D9D9"/>
</mask>
<g mask="url(#mask0_2293_6632)">
<rect width="128" height="128" fill="#003C3A"/>
<path d="M46.5619 48V57.7193H45.799C45.5517 55.8547 45.1084 54.3698 44.4681 53.2634C43.8288 52.1582 42.9178 51.2816 41.735 50.6311C40.5522 49.9818 39.3285 49.6572 38.0641 49.6572C36.634 49.6572 35.4512 50.0955 34.5168 50.9733C33.5813 51.8512 33.1147 52.8485 33.1147 53.9678C33.1147 54.8245 33.4098 55.605 34.0012 56.3094C34.8539 57.3454 36.8813 58.7272 40.0856 60.4536C42.6985 61.8623 44.482 62.944 45.4386 63.6965C46.3939 64.45 47.13 65.3372 47.6455 66.3592C48.1611 67.3824 48.4189 68.4524 48.4189 69.5716C48.4189 71.6988 47.5965 73.533 45.9541 75.0741C44.3106 76.6153 42.1969 77.3853 39.612 77.3853C38.8001 77.3853 38.0373 77.3232 37.3222 77.1989C36.8953 77.1298 36.0123 76.8778 34.672 76.443C33.3317 76.0082 32.4825 75.7902 32.1244 75.7902C31.7663 75.7902 31.5085 75.8934 31.3102 76.1008C31.1107 76.3082 30.9626 76.736 30.8669 77.3853H30.104V67.7492H30.8669C31.2239 69.7662 31.7056 71.2757 32.311 72.2766C32.9164 73.2786 33.8403 74.1108 35.0849 74.7741C36.3295 75.4374 37.6943 75.7691 39.1792 75.7691C40.8975 75.7691 42.2552 75.3132 43.2526 74.4014C44.2499 73.4896 44.748 72.4125 44.748 71.1691C44.748 70.4788 44.559 69.7803 44.1811 69.0759C43.8032 68.3715 43.2153 67.7152 42.4174 67.1069C41.8808 66.6921 40.4169 65.8119 38.0244 64.4641C35.632 63.1175 33.9301 62.0428 32.9199 61.2423C31.9097 60.4407 31.1422 59.557 30.6208 58.5901C30.0982 57.6232 29.8369 56.559 29.8369 55.3988C29.8369 53.3818 30.6068 51.6449 32.1465 50.1869C33.6863 48.7301 35.646 48.0012 38.0244 48.0012C39.5094 48.0012 41.0841 48.368 42.7475 49.0993C43.5174 49.4451 44.061 49.6173 44.3771 49.6173C44.734 49.6173 45.0268 49.5107 45.2543 49.2962C45.4806 49.0817 45.6637 48.6505 45.8013 48.0012H46.5642L46.5619 48Z" fill="#FFFEFC"/>
<path d="M93.257 48.6423H103.236V49.4263H102.688C102.322 49.4263 101.787 49.5893 101.084 49.9139C100.381 50.2385 99.7403 50.705 99.164 51.3133C98.5878 51.9215 97.8774 52.9107 97.0329 54.2807L90.1343 65.1966V72.4032C90.1343 74.1694 90.3315 75.2722 90.7246 75.7094C91.2588 76.3024 92.1033 76.6001 93.2558 76.6001H94.1843V77.3842H82.032V76.6001H83.0445C84.2541 76.6001 85.1115 76.2333 85.6189 75.4984C85.928 75.046 86.0831 74.0147 86.0831 72.4032V65.5986L78.2351 53.5588C77.3066 52.1454 76.6767 51.2629 76.3465 50.9089C76.0164 50.5561 75.3305 50.1319 74.29 49.6373C74.0089 49.4967 73.6007 49.4252 73.0664 49.4252V48.6411H85.3028V49.4252H84.6694C84.008 49.4252 83.4002 49.5811 82.845 49.8916C82.2898 50.2022 82.0121 50.6687 82.0121 51.291C82.0121 51.7996 82.4414 52.7185 83.2988 54.0463L89.2688 63.3097L94.8807 54.4495C95.7241 53.1216 96.1464 52.1325 96.1464 51.482C96.1464 51.0871 96.0437 50.7331 95.8407 50.4225C95.6366 50.112 95.345 49.8682 94.9647 49.6912C94.5844 49.5142 94.0152 49.4263 93.2558 49.4263V48.6423H93.257Z" fill="#FFFEFC"/>
<path d="M79.159 79.1619C78.9035 79.1619 78.6469 79.1501 78.3938 79.115C77.4687 78.9861 76.7315 78.6591 76.1798 78.1329C75.5406 77.5223 74.829 76.1932 74.0451 74.1434L64.3097 48.6421H63.5877L53.7496 73.8715C52.8969 76.0877 52.12 77.5562 51.4189 78.2805C51.2253 78.4845 50.9022 78.6661 50.4473 78.8267C49.7929 79.0576 49.1 79.1619 48.4059 79.1642L16 79.2322L24.2645 79.9987H57.9571V79.1619C56.6098 79.0564 55.7326 78.8267 55.3267 78.4727C54.9207 78.1188 54.7178 77.7074 54.7178 77.241C54.7178 76.6526 54.951 75.7643 55.4188 74.5735L57.3167 69.7356H68.1451L69.8365 74.1446C70.3859 75.5768 70.6612 76.6233 70.6612 77.2867C70.6612 77.7836 70.4652 78.2067 70.0733 78.5524C69.6813 78.8993 68.929 79.1033 67.815 79.163V79.9998H103.736L112 79.2334L79.1578 79.1642L79.159 79.1619ZM57.9582 68.062L62.8259 55.6729L67.57 68.062H57.9582Z" fill="#FFFEFC"/>
</g>
</svg>
