<svg width="42" height="31" viewBox="0 0 42 31" fill="none" xmlns="http://www.w3.org/2000/svg">
<path fill-rule="evenodd" clip-rule="evenodd" d="M32.4201 12.1133C27.3453 12.1133 23.2266 16.232 23.2266 21.3068C23.2266 26.3817 27.3453 30.5004 32.4201 30.5004C37.4949 30.5004 41.6137 26.3817 41.6137 21.3068C41.6137 16.232 37.4949 12.1133 32.4201 12.1133ZM28.6556 23.3004L30.5911 25.2359C30.8853 25.5301 31.2879 25.683 31.702 25.6597C32.1143 25.6346 32.4995 25.4372 32.7549 25.112L36.4614 20.4397C36.9588 19.8107 36.8524 18.8972 36.2253 18.3997C35.5982 17.9023 34.6827 18.0068 34.1853 18.6359L31.493 22.0326L30.7091 21.2488C30.142 20.6817 29.2227 20.6817 28.6556 21.2488C28.0904 21.8139 28.0904 22.7352 28.6556 23.3004Z" fill="#003C3A"/>
<path fill-rule="evenodd" clip-rule="evenodd" d="M27.8768 11.1452H0V23.2419C0 24.6529 0.56129 26.0077 1.55806 27.0065C2.55677 28.0032 3.91161 28.5645 5.32258 28.5645H23.9845C22.3064 26.6155 21.2903 24.0781 21.2903 21.3065C21.2903 16.7813 23.9961 12.8852 27.8768 11.1452ZM13.0665 19.8548H7.25806C6.45677 19.8548 5.80645 20.5052 5.80645 21.3065C5.80645 22.1077 6.45677 22.7581 7.25806 22.7581H13.0665C13.8677 22.7581 14.5181 22.1077 14.5181 21.3065C14.5181 20.5052 13.8677 19.8548 13.0665 19.8548ZM0 8.24194H37.7419V5.82258C37.7419 4.41161 37.1806 3.05677 36.1839 2.05806C35.1852 1.06129 33.8303 0.5 32.4194 0.5C25.7168 0.5 12.0252 0.5 5.32258 0.5C3.91161 0.5 2.55677 1.06129 1.55806 2.05806C0.56129 3.05677 0 4.41161 0 5.82258V8.24194Z" fill="#003C3A"/>
</svg>
