<svg width="35" height="22" viewBox="0 0 35 22" fill="none" xmlns="http://www.w3.org/2000/svg">
<g clip-path="url(#clip0_4050_9908)">
<path d="M0 10.9921C0 17.0723 4.85157 22 10.8203 22C12.9453 22 15.0312 21.3482 16.7969 20.164C11.1016 15.4509 11.1406 6.55709 16.7969 1.84394C15.0312 0.651734 12.9453 0.00794785 10.8203 0.00794785C4.85157 -1.21569e-07 0 4.9357 0 10.9921ZM17.5 19.6394C23.0078 15.268 22.9844 6.74783 17.5 2.35261C12.0156 6.74783 11.9922 15.2761 17.5 19.6394ZM35 10.9921C35 4.9357 30.1484 0 24.1798 0C22.0547 0 19.9688 0.651734 18.2031 1.83599C23.8359 6.54914 23.9219 15.4667 18.2031 20.1561C19.9688 21.3482 22.0703 21.9921 24.1798 21.9921C30.1484 22 35 17.0723 35 10.9921Z" fill="white"/>
</g>
<defs>
<clipPath id="clip0_4050_9908">
<rect width="35" height="22" fill="white"/>
</clipPath>
</defs>
</svg>
