<svg width="24" height="24" viewBox="0 0 24 24" fill="none" xmlns="http://www.w3.org/2000/svg">
<g clip-path="url(#clip0_4038_9777)">
<path d="M21.6831 3.5786L20.0223 7.45928C19.8822 7.78646 19.5198 7.95755 19.1786 7.85771L17.9121 7.48693V14.0455C17.05 13.7427 16.1679 13.6762 15.5604 13.6762C14.6375 13.6762 13.7394 13.8304 13.0283 14.1107C13.0274 14.1112 13.0264 14.1116 13.0255 14.1116C13.0128 14.1168 12.9997 14.1215 12.9871 14.1266C12.5159 14.3173 11.4729 14.314 11.0123 14.1271C10.0907 13.7531 9.10689 13.6743 8.44409 13.6743C7.59379 13.6743 6.7665 13.8051 6.08776 14.0451V7.48693L4.82121 7.85771C4.47997 7.95755 4.11763 7.78646 3.97747 7.45928L2.31672 3.5786C2.16719 3.22938 2.32187 2.82486 2.6664 2.66455L8.24815 0.065879C8.57393 -0.085994 8.96205 0.0325982 9.1472 0.340563C9.75563 1.35071 10.822 1.95398 11.9999 1.95398C13.1779 1.95398 14.2442 1.35071 14.8527 0.340563C15.0378 0.0325982 15.4259 -0.085994 15.7517 0.065879L21.3334 2.66455C21.6779 2.82486 21.8326 3.22938 21.6831 3.5786Z" fill="#FFFEFC"/>
<path d="M23.9844 14.0144L21.9763 23.4427C21.9069 23.7675 21.6205 23.9996 21.2886 23.9996H2.71138C2.37951 23.9996 2.09311 23.7675 2.02373 23.4427L0.420162 15.9137C0.419693 15.9119 0.419224 15.9105 0.419224 15.9091L0.0156359 14.0144C-0.0654567 13.6347 0.176884 13.2611 0.557035 13.18C0.936248 13.0994 1.30984 13.3417 1.39093 13.7214L1.68624 15.108C2.22107 15.1511 2.90122 15.2453 3.35215 15.4234C3.35825 15.4258 3.36387 15.4281 3.3695 15.4305C4.1762 15.7567 5.59181 15.7567 6.39899 15.43C6.40367 15.4281 6.40836 15.4262 6.41352 15.4248C7.52866 14.9744 9.3141 14.9556 10.485 15.4305C11.2917 15.7567 12.7083 15.7567 13.515 15.43C13.5206 15.4281 13.5258 15.4258 13.5314 15.4239C14.6428 14.98 16.4109 14.9542 17.601 15.43C18.4082 15.7567 19.8238 15.7567 20.6305 15.4305C20.6361 15.4281 20.6418 15.4258 20.6474 15.4234C21.1053 15.2425 21.7832 15.1469 22.3147 15.1028L22.6091 13.7214C22.6897 13.3417 23.0633 13.0994 23.443 13.18C23.8231 13.2611 24.0655 13.6347 23.9844 14.0144Z" fill="#FFFEFC"/>
</g>
<defs>
<clipPath id="clip0_4038_9777">
<rect width="24" height="24" fill="white"/>
</clipPath>
</defs>
</svg>
