<svg width="32" height="32" viewBox="0 0 32 32" fill="none" xmlns="http://www.w3.org/2000/svg">
<path d="M26.6667 0H6.09532C5.18601 0 4.31394 0.361224 3.67095 1.00421C3.02797 1.64719 2.66675 2.51926 2.66675 3.42857V28.5714C2.66675 29.4807 3.02797 30.3528 3.67095 30.9958C4.31394 31.6388 5.18601 32 6.09532 32H26.6667C27.5761 32 28.4481 31.6388 29.0911 30.9958C29.7341 30.3528 30.0953 29.4807 30.0953 28.5714V3.42857C30.0953 2.51926 29.7341 1.64719 29.0911 1.00421C28.4481 0.361224 27.5761 0 26.6667 0ZM22.0953 3.42857C22.3214 3.42857 22.5423 3.4956 22.7303 3.62118C22.9182 3.74676 23.0647 3.92525 23.1512 4.13408C23.2377 4.34291 23.2603 4.5727 23.2162 4.79439C23.1721 5.01608 23.0633 5.21972 22.9034 5.37955C22.7436 5.53938 22.54 5.64823 22.3183 5.69233C22.0966 5.73642 21.8668 5.71379 21.658 5.62729C21.4491 5.54079 21.2706 5.39431 21.1451 5.20637C21.0195 5.01842 20.9525 4.79746 20.9525 4.57143C20.9525 4.26832 21.0729 3.97763 21.2872 3.76331C21.5015 3.54898 21.7922 3.42857 22.0953 3.42857ZM6.09532 4.57143C6.09532 4.26832 6.21573 3.97763 6.43005 3.76331C6.64438 3.54898 6.93507 3.42857 7.23818 3.42857H10.6667C10.9699 3.42857 11.2605 3.54898 11.4749 3.76331C11.6892 3.97763 11.8096 4.26832 11.8096 4.57143C11.8096 4.87453 11.6892 5.16522 11.4749 5.37955C11.2605 5.59388 10.9699 5.71429 10.6667 5.71429H7.23818C6.93507 5.71429 6.64438 5.59388 6.43005 5.37955C6.21573 5.16522 6.09532 4.87453 6.09532 4.57143ZM16.381 28.5714C14.5727 28.5714 12.8051 28.0352 11.3015 27.0306C9.798 26.0259 8.62614 24.598 7.93414 22.9274C7.24213 21.2568 7.06108 19.4184 7.41385 17.6449C7.76663 15.8713 8.63741 14.2422 9.91606 12.9636C11.1947 11.6849 12.8238 10.8142 14.5974 10.4614C16.3709 10.1086 18.2092 10.2897 19.8799 10.9817C21.5505 11.6737 22.9784 12.8455 23.983 14.3491C24.9877 15.8526 25.5239 17.6203 25.5239 19.4286C25.5212 21.8526 24.557 24.1765 22.843 25.8905C21.129 27.6046 18.805 28.5687 16.381 28.5714ZM25.5239 5.71429C25.2979 5.71429 25.0769 5.64726 24.889 5.52168C24.701 5.3961 24.5545 5.21761 24.468 5.00878C24.3815 4.79995 24.3589 4.57016 24.403 4.34847C24.4471 4.12678 24.5559 3.92314 24.7158 3.76331C24.8756 3.60348 25.0792 3.49463 25.3009 3.45053C25.5226 3.40643 25.7524 3.42907 25.9612 3.51557C26.1701 3.60207 26.3486 3.74855 26.4741 3.93649C26.5997 4.12443 26.6667 4.34539 26.6667 4.57143C26.6667 4.87453 26.5463 5.16522 26.332 5.37955C26.1177 5.59388 25.827 5.71429 25.5239 5.71429Z" fill="#FFFEFC"/>
<path d="M16.4166 19.4276C15.3471 18.889 14.1658 18.6102 12.9684 18.6138C11.771 18.6174 10.5914 18.9032 9.52515 19.4481C9.52621 21.2668 10.2497 23.0105 11.5364 24.2957C12.1735 24.9321 12.9297 25.4367 13.7619 25.7809C14.594 26.125 15.4858 26.3018 16.3863 26.3013C17.2868 26.3008 18.1784 26.1229 19.0101 25.7778C19.8418 25.4327 20.5975 24.9272 21.2338 24.2901C21.8702 23.6529 22.3749 22.8967 22.719 22.0646C23.0631 21.2324 23.24 20.3406 23.2394 19.4401C22.1797 19.9692 21.011 20.2436 19.8265 20.2414C18.642 20.2393 17.4744 19.9606 16.4166 19.4276Z" fill="#FFFEFC"/>
</svg>
