<svg width="58" height="18" viewBox="0 0 58 18" fill="none" xmlns="http://www.w3.org/2000/svg">
<g clip-path="url(#clip0_4050_9910)">
<path d="M23.0768 0.5L20 16.5H24.9207L28 0.5H23.0768Z" fill="white"/>
<path d="M16.8959 0.50337L12.1772 11.4302L11.6741 9.78036C10.7435 7.79244 8.1016 4.93746 5 3.13822L9.31474 16.5L14.4126 16.4921L22 0.5L16.8959 0.50337Z" fill="white"/>
<path d="M9.41231 1.89806C9.13862 0.849819 8.34538 0.537394 7.36079 0.5H0.0605528L0 0.842581C5.68105 2.21531 9.44017 5.52292 11 9.5L9.41231 1.89806Z" fill="white"/>
<path d="M37.4557 3.9404C38.9821 3.91731 40.0885 4.23827 40.9476 4.57076L41.3688 4.76126L42 1.19154C41.076 0.857893 39.6277 0.5 37.8205 0.5C33.2102 0.5 29.9607 2.73395 29.9356 5.93538C29.9056 8.30095 32.2504 9.6217 34.0214 10.4102C35.8394 11.2184 36.449 11.7321 36.4406 12.4537C36.4261 13.5562 34.991 14.0619 33.6506 14.0619C31.7823 14.0619 30.79 13.8137 29.2576 13.1995L28.6565 12.9363L28 16.6225C29.092 17.0832 31.1067 17.4792 33.1983 17.5C38.1025 17.5 41.2895 15.2925 41.3233 11.8718C41.3436 10.0004 40.0992 8.57225 37.4029 7.40044C35.7709 6.63616 34.7726 6.12819 34.7822 5.35697C34.7822 4.67235 35.6295 3.9404 37.4557 3.9404Z" fill="white"/>
<path d="M54.1689 0.5H50.5107C49.3745 0.5 48.5295 0.785034 48.0301 1.82866L41 16.5H45.9721C45.9721 16.5 46.7831 14.5272 46.967 14.0952C47.5114 14.0952 52.3423 14.1019 53.0302 14.1019C53.1715 14.6607 53.6075 16.5 53.6075 16.5H58L54.1689 0.5ZM48.3297 10.8184C48.7194 9.89936 50.216 6.3443 50.216 6.3443C50.1905 6.38806 50.602 5.4185 50.8468 4.81589L51.1659 6.19618C51.1659 6.19618 52.0731 10.0183 52.263 10.8184H48.3297Z" fill="white"/>
</g>
<defs>
<clipPath id="clip0_4050_9910">
<rect width="58" height="17" fill="white" transform="translate(0 0.5)"/>
</clipPath>
</defs>
</svg>
