<svg width="47" height="30" viewBox="0 0 47 30" fill="none" xmlns="http://www.w3.org/2000/svg">
<path d="M46.8578 3.71711C46.8538 2.99978 46.8331 2.24629 46.4981 1.59423C46.2277 1.06776 45.794 0.631195 45.2668 0.362058C44.6094 0.0263704 43.8654 0.00650554 43.143 0.00229456C42.9828 0.00137914 42.8226 0.00137894 42.6624 0.00137894H4.19791C3.6102 0.00137894 3.01187 -0.0177535 2.43113 0.0865139C1.84855 0.191331 1.29984 0.461565 0.879474 0.880191C0.458834 1.29909 0.190156 1.85082 0.0857968 2.43184C-0.0186537 3.01287 0.00157725 3.61064 0.00157725 4.19862V25.8037C0.00157725 25.9639 0.000661819 26.1241 0.00157725 26.2843C0.00569668 27.0047 0.0270262 27.752 0.361341 28.4072C0.630111 28.934 1.06576 29.3717 1.59351 29.6393C2.25088 29.9725 2.99659 29.9898 3.7173 29.9982C3.87659 30 4.0377 30 4.19791 30H42.6624C42.8226 30 42.9828 30 43.143 29.9982C43.8579 29.99 44.6066 29.975 45.2668 29.6393C45.7933 29.3717 46.231 28.9338 46.4981 28.4072C46.8301 27.7522 46.8537 27.0033 46.8578 26.2843C46.8587 26.1241 46.8587 25.9639 46.8587 25.8037V4.19862C46.8587 4.03751 46.8587 3.87731 46.8578 3.71711ZM45.8591 25.8037C45.8591 25.9611 45.8591 26.1186 45.8582 26.2797C45.855 26.8382 45.8666 27.4436 45.6074 27.954C45.4347 28.2939 45.1514 28.5761 44.8118 28.7486C44.3009 29.0083 43.6946 28.9953 43.1357 28.9985C42.9782 28.9994 42.8199 28.9994 42.6624 28.9994H4.1915C4.03587 28.9994 3.88025 28.9994 3.72188 28.9985C3.1621 28.9945 2.55727 29.0079 2.04573 28.7468C1.7062 28.5734 1.42507 28.2946 1.25297 27.954C0.994177 27.442 1.00617 26.8383 1.00214 26.2788L1.00123 25.9025V4.09884L1.00214 3.72443C1.00306 3.59627 1.00397 3.46811 1.00763 3.33995C1.02008 2.90402 1.05222 2.44164 1.25297 2.04645C1.4248 1.70829 1.70821 1.42478 2.04656 1.25369C2.44587 1.05183 2.89992 1.0208 3.33932 1.00826C3.46748 1.0046 3.59564 1.00368 3.72289 1.00277L4.198 1.00185H42.6625L43.1358 1.00277C43.6944 1.00387 44.3035 0.994071 44.8138 1.2536C45.1542 1.42661 45.4338 1.70829 45.6074 2.04819C45.868 2.55817 45.8551 3.16684 45.8583 3.72525C45.8592 3.88271 45.8592 4.04016 45.8592 4.19853L45.8591 25.8037Z" fill="#003C3A"/>
<path d="M45.8591 25.8037C45.8591 25.9611 45.8591 26.1186 45.8582 26.2797C45.855 26.8382 45.8666 27.4436 45.6074 27.954C45.4347 28.2939 45.1514 28.5761 44.8118 28.7486C44.3009 29.0083 43.6946 28.9953 43.1357 28.9985C42.9782 28.9994 42.8199 28.9994 42.6624 28.9994H4.1915C4.03587 28.9994 3.88025 28.9994 3.72188 28.9985C3.1621 28.9945 2.55727 29.0079 2.04573 28.7468C1.7062 28.5734 1.42507 28.2946 1.25297 27.954C0.994177 27.442 1.00617 26.8383 1.00214 26.2788L1.00123 25.9025V4.09884L1.00214 3.72443C1.00306 3.59627 1.00397 3.46811 1.00763 3.33995C1.02008 2.90402 1.05222 2.44164 1.25297 2.04645C1.4248 1.70829 1.70821 1.42478 2.04656 1.25369C2.44587 1.05183 2.89992 1.0208 3.33932 1.00826C3.46748 1.0046 3.59564 1.00368 3.72289 1.00277L4.198 1.00185H42.6625L43.1358 1.00277C43.6944 1.00387 44.3035 0.994071 44.8138 1.2536C45.1542 1.42661 45.4338 1.70829 45.6074 2.04819C45.868 2.55817 45.8551 3.16684 45.8583 3.72525C45.8592 3.88271 45.8592 4.04016 45.8592 4.19853L45.8591 25.8037Z" fill="#003C3A"/>
<path d="M11.0604 10.9079C10.9753 10.2478 11.3048 9.5457 11.6774 9.11636C12.0921 8.61379 12.8089 8.25586 13.3966 8.22656C13.468 8.91497 13.1961 9.58872 12.7942 10.0904C12.3786 10.5783 11.7204 10.9646 11.0604 10.9079Z" fill="black"/>
<path d="M15.8154 16.7695C15.8007 16.8125 15.5728 17.5989 15.0153 18.4136C14.5292 19.1286 14.0294 19.8289 13.2293 19.8435C12.4576 19.8582 12.2004 19.3858 11.3142 19.3858C10.4281 19.3858 10.1425 19.8289 9.4138 19.8582C8.64209 19.8866 8.05713 19.0993 7.57104 18.3853C6.57047 16.9407 5.81341 14.3107 6.84236 12.5375C7.34218 11.6514 8.25669 11.0939 9.24261 11.0792C9.99967 11.0655 10.7 11.58 11.1577 11.58C11.6145 11.58 12.4283 10.9794 13.3858 11.0371C13.7575 11.0655 14.8295 11.1799 15.5151 12.1942C15.4584 12.2381 14.2436 12.9385 14.2582 14.4105C14.272 16.169 15.8007 16.7549 15.8154 16.7695Z" fill="black"/>
<path d="M21.7237 9.04492H17.7031V19.7692H19.3674V16.1056H21.6715C23.7752 16.1056 25.2536 14.6638 25.2536 12.5675C25.2536 10.4794 23.8054 9.04492 21.7237 9.04492ZM21.2779 14.7078H19.3674V10.4492H21.2852C22.727 10.4492 23.5518 11.2227 23.5518 12.5748C23.5518 13.9278 22.727 14.7078 21.2779 14.7078Z" fill="black"/>
<path d="M29.2286 11.8086C27.2962 11.8086 26.0924 12.8494 26.0036 14.261H27.5195C27.6605 13.5626 28.24 13.1167 29.1691 13.1167C30.1505 13.1167 30.7373 13.6367 30.7373 14.5064V15.1087L28.597 15.235C26.7387 15.3394 25.6914 16.1789 25.6914 17.5465C25.6914 18.9508 26.7615 19.9028 28.2921 19.9028C29.3183 19.9028 30.307 19.3526 30.7601 18.483H30.7968V19.7683H32.3356V14.38C32.3356 12.8119 31.1245 11.8086 29.2286 11.8086ZM30.7373 16.8407C30.7373 17.8587 29.8603 18.6313 28.738 18.6313C27.8765 18.6313 27.3117 18.1855 27.3117 17.5016C27.3117 16.8334 27.8537 16.4095 28.8121 16.3427L30.7373 16.2237V16.8407Z" fill="black"/>
<path d="M38.735 11.9512H40.4294L37.501 20.1791C36.8318 22.074 36.0592 22.6837 34.4389 22.6837C34.3052 22.6837 33.9033 22.669 33.7853 22.647V21.3462C33.9033 21.3755 34.1706 21.3755 34.3052 21.3755C35.0485 21.3755 35.4495 21.0634 35.6948 20.2605C35.6948 20.2459 35.8358 19.7854 35.8358 19.7781L33.0117 11.9512H34.751L36.7284 18.3134H36.7577L38.735 11.9512Z" fill="black"/>
<path d="M11.0604 10.9079C10.9753 10.2478 11.3048 9.5457 11.6774 9.11636C12.0921 8.61379 12.8089 8.25586 13.3966 8.22656C13.468 8.91497 13.1961 9.58872 12.7942 10.0904C12.3786 10.5783 11.7204 10.9646 11.0604 10.9079Z" fill="black"/>
<path d="M15.8154 16.7695C15.8007 16.8125 15.5728 17.5989 15.0153 18.4136C14.5292 19.1286 14.0294 19.8289 13.2293 19.8435C12.4576 19.8582 12.2004 19.3858 11.3142 19.3858C10.4281 19.3858 10.1425 19.8289 9.4138 19.8582C8.64209 19.8866 8.05713 19.0993 7.57104 18.3853C6.57047 16.9407 5.81341 14.3107 6.84236 12.5375C7.34218 11.6514 8.25669 11.0939 9.24261 11.0792C9.99967 11.0655 10.7 11.58 11.1577 11.58C11.6145 11.58 12.4283 10.9794 13.3858 11.0371C13.7575 11.0655 14.8295 11.1799 15.5151 12.1942C15.4584 12.2381 14.2436 12.9385 14.2582 14.4105C14.272 16.169 15.8007 16.7549 15.8154 16.7695Z" fill="black"/>
<path d="M21.7237 9.04492H17.7031V19.7692H19.3674V16.1056H21.6715C23.7752 16.1056 25.2536 14.6638 25.2536 12.5675C25.2536 10.4794 23.8054 9.04492 21.7237 9.04492ZM21.2779 14.7078H19.3674V10.4492H21.2852C22.727 10.4492 23.5518 11.2227 23.5518 12.5748C23.5518 13.9278 22.727 14.7078 21.2779 14.7078Z" fill="black"/>
<path d="M29.2286 11.8086C27.2962 11.8086 26.0924 12.8494 26.0036 14.261H27.5195C27.6605 13.5626 28.24 13.1167 29.1691 13.1167C30.1505 13.1167 30.7373 13.6367 30.7373 14.5064V15.1087L28.597 15.235C26.7387 15.3394 25.6914 16.1789 25.6914 17.5465C25.6914 18.9508 26.7615 19.9028 28.2921 19.9028C29.3183 19.9028 30.307 19.3526 30.7601 18.483H30.7968V19.7683H32.3356V14.38C32.3356 12.8119 31.1245 11.8086 29.2286 11.8086ZM30.7373 16.8407C30.7373 17.8587 29.8603 18.6313 28.738 18.6313C27.8765 18.6313 27.3117 18.1855 27.3117 17.5016C27.3117 16.8334 27.8537 16.4095 28.8121 16.3427L30.7373 16.2237V16.8407Z" fill="black"/>
<path d="M40.4294 11.9512L37.501 20.1791C36.8318 22.074 36.0592 22.6837 34.4389 22.6837C34.3052 22.6837 33.9033 22.669 33.7853 22.647V21.3462C33.9033 21.3755 34.1706 21.3755 34.3052 21.3755C35.0485 21.3755 35.4495 21.0634 35.6948 20.2605C35.6948 20.2459 35.8358 19.7854 35.8358 19.7781L33.0117 11.9512H34.751L36.7284 18.3134H36.7577L38.735 11.9512H40.4294Z" fill="black"/>
<path d="M12.7903 10.0904C12.3747 10.5783 11.7165 10.9646 11.0565 10.9079C10.9714 10.2478 11.3009 9.5457 11.6735 9.11636C12.0882 8.61379 12.805 8.25586 13.3927 8.22656C13.4641 8.91497 13.1922 9.58872 12.7903 10.0904Z" fill="white"/>
<path d="M15.8154 16.7695C15.8007 16.8125 15.5728 17.5989 15.0153 18.4136C14.5292 19.1286 14.0294 19.8289 13.2293 19.8435C12.4576 19.8582 12.2004 19.3858 11.3142 19.3858C10.4281 19.3858 10.1425 19.8289 9.4138 19.8582C8.64209 19.8866 8.05713 19.0993 7.57104 18.3853C6.57047 16.9407 5.81341 14.3107 6.84236 12.5375C7.34218 11.6514 8.25669 11.0939 9.24261 11.0792C9.99967 11.0655 10.7 11.58 11.1577 11.58C11.6145 11.58 12.4283 10.9794 13.3858 11.0371C13.7575 11.0655 14.8295 11.1799 15.5151 12.1942C15.4584 12.2381 14.2436 12.9385 14.2582 14.4105C14.272 16.169 15.8007 16.7549 15.8154 16.7695Z" fill="white"/>
<path d="M21.7237 9.04492H17.7031V19.7692H19.3674V16.1056H21.6715C23.7752 16.1056 25.2536 14.6638 25.2536 12.5675C25.2536 10.4794 23.8054 9.04492 21.7237 9.04492ZM21.2779 14.7078H19.3674V10.4492H21.2852C22.727 10.4492 23.5518 11.2227 23.5518 12.5748C23.5518 13.9278 22.727 14.7078 21.2779 14.7078Z" fill="white"/>
<path d="M29.2286 11.8086C27.2962 11.8086 26.0924 12.8494 26.0036 14.261H27.5195C27.6605 13.5626 28.24 13.1167 29.1691 13.1167C30.1505 13.1167 30.7373 13.6367 30.7373 14.5064V15.1087L28.597 15.235C26.7387 15.3394 25.6914 16.1789 25.6914 17.5465C25.6914 18.9508 26.7615 19.9028 28.2921 19.9028C29.3183 19.9028 30.307 19.3526 30.7601 18.483H30.7968V19.7683H32.3356V14.38C32.3356 12.8119 31.1245 11.8086 29.2286 11.8086ZM30.7373 16.8407C30.7373 17.8587 29.8603 18.6313 28.738 18.6313C27.8765 18.6313 27.3117 18.1855 27.3117 17.5016C27.3117 16.8334 27.8537 16.4095 28.8121 16.3427L30.7373 16.2237V16.8407Z" fill="white"/>
<path d="M38.735 11.9512L36.7577 18.3134H36.7284L34.751 11.9512H33.0117L35.8358 19.7781C35.8358 19.7854 35.6948 20.2459 35.6948 20.2605C35.4495 21.0634 35.0485 21.3755 34.3052 21.3755C34.1706 21.3755 33.9033 21.3755 33.7853 21.3462V22.647C33.9033 22.669 34.3052 22.6837 34.4389 22.6837C36.0592 22.6837 36.8318 22.074 37.501 20.1791L40.4294 11.9512H38.735Z" fill="white"/>
</svg>
