<svg width="63" height="26" viewBox="0 0 63 26" fill="none" xmlns="http://www.w3.org/2000/svg">
<path d="M11.5113 3.35205C10.7729 4.23026 9.59148 4.92296 8.41009 4.82401C8.26245 3.63653 8.84083 2.37488 9.51773 1.59562C10.2561 0.692669 11.5481 0.0494722 12.5942 0C12.7174 1.23692 12.2374 2.4491 11.5113 3.35205ZM12.5819 5.05902C10.8714 4.96008 9.40689 6.03619 8.59467 6.03619C7.77028 6.03619 6.52732 5.10842 5.17367 5.13327C3.4139 5.15797 1.77716 6.15983 0.878821 7.75551C-0.967091 10.9467 0.398878 15.6718 2.18327 18.2693C3.05705 19.5556 4.10297 20.9657 5.48126 20.9163C6.78579 20.8667 7.30259 20.0628 8.87778 20.0628C10.4653 20.0628 10.9206 20.9163 12.2989 20.8916C13.7263 20.8667 14.6248 19.6052 15.4984 18.3187C16.4952 16.8591 16.9013 15.4368 16.9259 15.3625C16.9013 15.3378 14.1694 14.2864 14.1448 11.1199C14.1201 8.47282 16.2983 7.21124 16.3968 7.137C15.1662 5.30631 13.2465 5.10842 12.5819 5.05902ZM22.4637 1.47193V20.7555H25.4418V14.1626H29.5643C33.33 14.1626 35.9758 11.5652 35.9758 7.80491C35.9758 4.04472 33.3793 1.47193 29.6627 1.47193H22.4637ZM25.4418 3.99525H28.8751C31.4594 3.99525 32.9362 5.38055 32.9362 7.81733C32.9362 10.2541 31.4594 11.6518 28.863 11.6518H25.4418V3.99525ZM41.4151 20.9039C43.2856 20.9039 45.0207 19.9515 45.8083 18.4424H45.8699V20.7555H48.6265V11.157C48.6265 8.37388 46.4113 6.58046 43.0026 6.58046C39.84 6.58046 37.5018 8.39872 37.4156 10.8972H40.0983C40.3198 9.70984 41.4151 8.93057 42.9164 8.93057C44.7378 8.93057 45.7592 9.78394 45.7592 11.3549V12.4186L42.0428 12.6413C38.5847 12.8515 36.7142 14.274 36.7142 16.7479C36.7142 19.2465 38.6463 20.9039 41.4151 20.9039ZM42.2151 18.6156C40.6276 18.6156 39.6184 17.8487 39.6184 16.6737C39.6184 15.4615 40.5906 14.7564 42.4489 14.6451L45.7592 14.4348V15.5233C45.7592 17.3291 44.2331 18.6156 42.2151 18.6156ZM52.3059 26C55.2103 26 56.5763 24.8868 57.77 21.5099L63 6.76592H59.9728L56.4654 18.158H56.404L52.8966 6.76592H49.7832L54.8288 20.8049L54.558 21.6584C54.1027 23.1056 53.3643 23.6622 52.0476 23.6622C51.8138 23.6622 51.3584 23.6375 51.1738 23.6128V25.9258C51.3461 25.9753 52.0846 26 52.3059 26Z" fill="white"/>
</svg>
