<svg width="63" height="25" viewBox="0 0 63 25" fill="none" xmlns="http://www.w3.org/2000/svg">
<mask id="mask0_4050_9916" style="mask-type:luminance" maskUnits="userSpaceOnUse" x="0" y="0" width="63" height="25">
<path d="M63 0H0V25H63V0Z" fill="white"/>
</mask>
<g mask="url(#mask0_4050_9916)">
<path d="M29.3587 11.7118V19H27V1.00121H33.2558C34.0025 0.985922 34.745 1.11574 35.4402 1.38317C36.1355 1.65061 36.7699 2.05037 37.3067 2.55939C37.8489 3.03749 38.2804 3.62384 38.5724 4.27903C38.8641 4.93428 39.0096 5.6431 38.9989 6.35789C39.0144 7.07651 38.8711 7.79002 38.579 8.4494C38.287 9.10878 37.8529 9.69839 37.3067 10.1779C36.2127 11.2004 34.8624 11.7112 33.2558 11.7103H29.3587V11.7118ZM29.3587 3.21712V9.50005H33.3144C33.748 9.5127 34.1796 9.4364 34.5816 9.27614C34.9834 9.11602 35.3467 8.8752 35.6482 8.56945C35.9483 8.28359 36.1866 7.94176 36.3495 7.56398C36.5122 7.1862 36.5961 6.78014 36.5961 6.37011C36.5961 5.95993 36.5122 5.55402 36.3495 5.17624C36.1866 4.79846 35.9483 4.45662 35.6482 4.17076C35.3505 3.85848 34.9884 3.61191 34.5861 3.44725C34.1837 3.28262 33.7502 3.20368 33.3144 3.21568H29.3587V3.21712Z" fill="white"/>
<path d="M44.4243 7C46.1477 7 47.508 7.45263 48.5053 8.35762C49.5028 9.26275 50.0009 10.5037 50 12.0805V19.6016H47.7696V17.908H47.6683C46.7029 19.3027 45.4187 20 43.816 20C42.4479 20 41.3033 19.6016 40.3822 18.8046C39.9401 18.4388 39.5868 17.9807 39.3478 17.4637C39.1087 16.9467 38.9902 16.3838 39.0006 15.816C39.0006 14.5533 39.4862 13.5491 40.4576 12.8034C41.4288 12.0577 42.7254 11.6839 44.3475 11.6821C45.732 11.6821 46.8722 11.931 47.7682 12.4291V11.9054C47.7709 11.5183 47.6858 11.1355 47.5192 10.7848C47.3526 10.4341 47.1087 10.1241 46.8052 9.87758C46.1886 9.3309 45.385 9.03256 44.5546 9.04214C43.2522 9.04214 42.2214 9.58192 41.4626 10.6616L39.409 9.39087C40.5386 7.797 42.2104 7 44.4243 7ZM41.4075 15.8659C41.4059 16.1575 41.4754 16.4452 41.6098 16.7051C41.7444 16.965 41.9402 17.1896 42.181 17.3601C42.6966 17.7588 43.3367 17.97 43.9926 17.9579C44.9766 17.9562 45.9198 17.5714 46.6155 16.8877C47.3878 16.1732 47.7741 15.3351 47.7741 14.3731C47.047 13.8039 46.0332 13.5192 44.7326 13.5192C43.7856 13.5192 42.9957 13.7436 42.3634 14.1923C41.7246 14.6478 41.4075 15.2014 41.4075 15.8659Z" fill="white"/>
<path d="M63 7L55.4794 25H53.1543L55.9452 18.7018L51 7H53.4482L57.0224 15.9746H57.0713L60.5477 7H63Z" fill="white"/>
<path d="M20 11.1654C20.0009 10.4397 19.9409 9.71525 19.8207 9H10V13.1014H15.6249C15.5098 13.7565 15.2662 14.381 14.9086 14.9372C14.5512 15.4934 14.0873 15.9697 13.545 16.3377V19H16.9019C18.8676 17.1468 20 14.4061 20 11.1654Z" fill="white"/>
<path d="M10.1859 20C12.9604 20 15.2965 19.1233 17 17.6118L13.6858 15.1385C12.7633 15.7403 11.5753 16.0838 10.1859 16.0838C7.50418 16.0838 5.2281 14.3442 4.41413 12H1V14.549C1.85571 16.1875 3.16779 17.565 4.78992 18.5276C6.41206 19.4901 8.28023 19.9999 10.1859 20Z" fill="white"/>
<path d="M5 12.4181C4.52273 11.1738 4.52273 9.82622 5 8.58193V6H1.21397C0.415717 7.39631 0 8.93735 0 10.5C0 12.0627 0.415717 13.6037 1.21397 15L5 12.4181Z" fill="white"/>
<path d="M10.1492 3.91648C11.6095 3.89344 13.0206 4.42641 14.0773 5.40035L17 2.57686C15.1468 0.895216 12.6915 -0.0280454 10.1492 0.000649372C8.25112 0.00073093 6.39041 0.510466 4.77477 1.47294C3.15912 2.43543 1.85228 3.81278 1 5.45118L4.40048 8C5.2112 5.65589 7.47818 3.91648 10.1492 3.91648Z" fill="white"/>
</g>
</svg>
