<svg width="73" height="14" viewBox="0 0 73 14" fill="none" xmlns="http://www.w3.org/2000/svg">
<g clip-path="url(#clip0_4050_9899)">
<path d="M0 0H6.10074C7.61718 0 8.807 0.360167 9.68187 1.06888C10.5567 1.78921 11 2.84647 11 4.2639C11 5.6 10.5917 6.65727 9.77519 7.43569C8.95865 8.21412 7.85047 8.60913 6.43903 8.60913H2.47296V14H0V0ZM2.47296 2.05644V6.64565H5.9141C7.7105 6.64565 8.59703 5.87885 8.59703 4.34523C8.59703 2.82324 7.62885 2.06804 5.69247 2.06804H2.47296V2.05644Z" fill="white"/>
<path d="M18 4.04469V6.11174C17.6008 6.07822 17.3424 6.05587 17.2016 6.05587C15.2289 6.05587 14.2427 7.27374 14.2427 9.70949V14H12V4.23464H14.1252V6.17877C14.8532 4.72626 16.0038 4 17.5656 4L18 4.04469Z" fill="white"/>
<path d="M22 0V2.19653H20V0H22ZM22 3.89595V14H20V3.89595H22Z" fill="white"/>
<path d="M23 4H25.4735L28.1118 11.6712L30.6442 4H33L29.3133 14H26.7574L23 4Z" fill="white"/>
<path d="M34.4373 7.20347C34.6675 5.06062 36.1404 4 38.8446 4C40.0989 4 41.1116 4.22727 41.8596 4.69265C42.6075 5.15802 42.9758 5.88313 42.9758 6.85717V11.6516C42.9758 11.9221 43.0103 12.1061 43.0794 12.2035C43.1484 12.3009 43.2864 12.355 43.4936 12.355C43.6548 12.355 43.8158 12.3442 44 12.3225V13.7944C43.4246 13.9243 42.9527 14 42.5615 14C41.618 14 41.0656 13.6213 40.9274 12.8637C40.0874 13.6213 38.9022 14 37.3947 14C36.3591 14 35.5306 13.7511 34.9206 13.2425C34.3108 12.7338 34 12.052 34 11.1754C34 10.9048 34.0345 10.6559 34.0921 10.4286C34.1612 10.2013 34.2302 9.9957 34.3223 9.82254C34.4028 9.64939 34.5409 9.49786 34.7366 9.34634C34.9206 9.19483 35.0818 9.07579 35.2083 8.97838C35.3349 8.88098 35.5306 8.7944 35.8182 8.70782C36.0944 8.62123 36.3016 8.5563 36.4396 8.51301C36.5777 8.46972 36.8078 8.42644 37.1531 8.37232C37.4868 8.32903 37.7169 8.28574 37.8205 8.27492C37.9356 8.25327 38.1657 8.23163 38.5109 8.18834C39.3049 8.09093 39.8458 8.00436 40.1334 7.93941C40.4212 7.87448 40.6168 7.76626 40.7204 7.63638C40.8125 7.53898 40.8584 7.31171 40.8584 6.95456C40.8584 6.00218 40.168 5.52598 38.7872 5.52598C38.0621 5.52598 37.5329 5.65586 37.1875 5.91559C36.8538 6.17533 36.6353 6.60824 36.5432 7.2143H34.4373V7.20347ZM40.824 9.00002C40.6513 9.0866 40.4556 9.16236 40.237 9.22731C40.0185 9.29224 39.8343 9.33553 39.6962 9.35717C39.5582 9.37882 39.351 9.40046 39.0518 9.44375C38.7642 9.47622 38.5685 9.50868 38.4764 9.51951C38.2002 9.55198 37.993 9.59527 37.832 9.61691C37.6709 9.64937 37.4868 9.70349 37.2566 9.76842C37.0265 9.84418 36.8538 9.93076 36.7273 10.039C36.6007 10.1472 36.4971 10.2879 36.405 10.4611C36.3131 10.6342 36.267 10.8507 36.267 11.0888C36.267 11.5433 36.4281 11.8897 36.7389 12.1278C37.061 12.3767 37.4983 12.4957 38.0736 12.4957C39.0633 12.4957 39.8228 12.2468 40.3522 11.7489C40.6513 11.4676 40.801 10.9264 40.801 10.1147V9.00002H40.824Z" fill="white"/>
<path d="M50 3.98342V5.58289H47.9495V10.801C47.9495 11.1073 47.9612 11.3229 47.9728 11.4476C47.9845 11.5724 48.0194 11.7085 48.0894 11.856C48.1593 12.0035 48.2757 12.1056 48.4388 12.151C48.602 12.2077 48.835 12.2304 49.1145 12.2304C49.4875 12.2304 49.7787 12.219 50 12.1963V13.9206C49.5573 13.966 49.0447 14 48.4855 14C48.0894 14 47.7399 13.966 47.4485 13.9092C47.1573 13.8525 46.901 13.7845 46.7029 13.7051C46.5049 13.6257 46.3417 13.5009 46.2135 13.308C46.0855 13.1265 45.9806 12.9677 45.9106 12.8429C45.8407 12.7182 45.7826 12.5026 45.7476 12.1963C45.7127 11.8901 45.701 11.6518 45.701 11.493C45.701 11.3342 45.701 11.0506 45.701 10.6536C45.701 10.6082 45.701 10.5628 45.701 10.5288C45.701 10.4948 45.701 10.4607 45.701 10.4154C45.701 10.37 45.701 10.3246 45.701 10.2906V5.58289H44V3.98342H45.701V1H47.9495V3.98342H50Z" fill="white"/>
<path d="M60.9778 12.0017V14H52C52.0111 13.3806 52.0888 12.808 52.2441 12.2938C52.3995 11.7796 52.5659 11.3356 52.7657 10.9733C52.9543 10.611 53.2429 10.2371 53.6313 9.8631C54.0086 9.48915 54.3527 9.17363 54.6634 8.9282C54.974 8.68279 55.3958 8.36727 55.9285 7.99332C55.9618 7.96995 56.1504 7.8414 56.4833 7.60768C56.8162 7.37395 57.016 7.23373 57.0937 7.17529C57.1714 7.11685 57.3378 6.97663 57.6041 6.75458C57.8705 6.53256 58.0369 6.35726 58.1257 6.22871C58.2034 6.10016 58.3144 5.91319 58.4586 5.69115C58.6029 5.46911 58.7029 5.23539 58.7473 5.01335C58.7915 4.77963 58.8248 4.53422 58.8248 4.27712C58.8248 3.55259 58.6362 2.97997 58.2478 2.57096C57.8705 2.15025 57.3489 1.95159 56.6942 1.95159C56.3169 1.95159 55.9951 2.01001 55.7176 2.13856C55.4402 2.26711 55.2294 2.43072 55.074 2.6177C54.9185 2.81636 54.7855 3.07346 54.6856 3.37729C54.5856 3.69283 54.519 3.98497 54.4857 4.25376C54.4524 4.53422 54.4304 4.84974 54.4193 5.2237H52.3329V4.87312C52.3329 3.37729 52.7324 2.197 53.5314 1.32053C54.3304 0.444074 55.4069 0 56.7497 0C58.0258 0 59.058 0.373957 59.8348 1.13356C60.6116 1.89315 61 2.89817 61 4.14857C61 4.65108 60.9223 5.13022 60.778 5.57429C60.6227 6.01836 60.4673 6.38063 60.3009 6.66111C60.1344 6.94157 59.8348 7.25709 59.4242 7.63105C59.0136 8.00501 58.7029 8.2621 58.503 8.40233C58.3033 8.54257 57.9371 8.81134 57.3933 9.19699C55.8286 10.2604 54.8852 11.1953 54.5745 11.99H60.9778V12.0017Z" fill="white"/>
<path d="M73 8.79833V10.7079H71.2066V14H68.9977L68.9739 10.7079H63V8.4703L69.0333 0H71.2066V8.81003H73V8.79833ZM69.0096 8.79833V2.78828L64.8883 8.79833H69.0096Z" fill="white"/>
</g>
<defs>
<clipPath id="clip0_4050_9899">
<rect width="73" height="14" fill="white"/>
</clipPath>
</defs>
</svg>
