<svg width="32" height="32" viewBox="0 0 32 32" fill="none" xmlns="http://www.w3.org/2000/svg">
<path d="M30.3347 23.2147L18.1907 14.588C21.7093 11.7 23.316 10.3747 22.424 6.47201C21.868 4.04268 19.9413 2.11468 17.512 1.56001C15.4933 1.10001 13.4213 1.56001 11.8333 2.82934C10.244 4.09601 9.33333 5.98801 9.33333 8.01734C9.33333 8.75334 9.93067 9.35068 10.6667 9.35068C11.4027 9.35068 12 8.75334 12 8.01734C12 6.80268 12.5453 5.67201 13.496 4.91335C14.4613 4.14268 15.676 3.87468 16.92 4.16001C18.3347 4.48268 19.5027 5.65068 19.8253 7.06534C20.336 9.30268 20.0227 9.63468 16.4853 12.54L15.1947 13.6053L1.62933 23.2413C0.609333 24.0187 0 25.2493 0 26.5307C0 28.8107 1.856 30.6667 4.136 30.6667H27.864C30.144 30.6667 32 28.8107 32 26.5307C32 25.2493 31.3907 24.0187 30.3347 23.2147ZM27.864 28H4.136C3.32533 28 2.66667 27.3413 2.66667 26.5307C2.66667 26.076 2.884 25.6387 3.20933 25.3893L16 16.3027L28.7533 25.3627C29.116 25.6387 29.3333 26.076 29.3333 26.5307C29.3333 27.3413 28.6747 28 27.864 28Z" fill="#FFFEFC"/>
</svg>
