<svg width="32" height="32" viewBox="0 0 32 32" fill="none" xmlns="http://www.w3.org/2000/svg">
<path d="M29.3981 9.8931C29.0731 9.2281 28.7021 8.5701 28.2531 7.8771C27.3821 6.5411 26.0261 5.6641 24.5181 5.4101V2.0001C24.5181 1.5031 24.1151 1.1001 23.6181 1.1001C23.1211 1.1001 22.7181 1.5031 22.7181 2.0001V5.4101C21.2091 5.6661 19.8471 6.5511 18.9431 7.9381C18.5331 8.5731 18.1611 9.2311 17.8381 9.8941C17.5731 10.4381 17.4651 11.0261 17.4891 11.6121C16.5011 12.1181 15.4971 12.1181 14.5101 11.6121C14.5341 11.0261 14.4261 10.4381 14.1611 9.8931C13.8381 9.2311 13.4661 8.5731 13.0161 7.8771C12.1461 6.5411 10.7891 5.6641 9.28107 5.4101V2.0001C9.28107 1.5031 8.87807 1.1001 8.38107 1.1001C7.88407 1.1001 7.48107 1.5031 7.48107 2.0001V5.4101C5.97207 5.6661 4.61007 6.5511 3.70707 7.9381C3.29807 8.5701 2.92707 9.2281 2.60207 9.8941C2.11207 10.9011 2.11707 12.0581 2.61507 13.0701C3.09507 14.0441 3.95907 14.7221 4.98707 14.9331C6.11407 15.1641 7.25607 15.2821 8.38207 15.2821H8.38307C9.50807 15.2821 10.6511 15.1651 11.7781 14.9331C12.7001 14.7441 13.4741 14.1641 13.9741 13.3471C14.6351 13.6421 15.3131 13.8001 16.0021 13.8001C16.6911 13.8001 17.3691 13.6421 18.0301 13.3471C18.5291 14.1641 19.3041 14.7441 20.2261 14.9331C21.3531 15.1641 22.4951 15.2821 23.6211 15.2821C24.7461 15.2821 25.8901 15.1651 27.0171 14.9331C28.0451 14.7221 28.9091 14.0431 29.3891 13.0701C29.8841 12.0581 29.8891 10.9001 29.3981 9.8931Z" fill="#FFFEFC"/>
<path d="M26.351 19.1013C19.428 20.2263 12.572 20.2263 5.64998 19.1013C4.92698 18.9893 4.23298 19.2023 3.79598 19.6853C3.39298 20.1313 3.25498 20.7393 3.41998 21.3493L3.77398 22.6633C3.96598 23.3783 4.57298 23.9783 5.35798 24.2313C6.77898 24.6863 11.507 26.4313 12.684 29.7523C12.927 30.4393 13.677 30.8993 14.548 30.8993H17.45C18.322 30.8993 19.071 30.4383 19.314 29.7523C20.491 26.4313 25.219 24.6863 26.641 24.2303C27.425 23.9783 28.032 23.3773 28.224 22.6633L28.578 21.3493C28.743 20.7393 28.605 20.1313 28.202 19.6853C27.768 19.2003 27.077 18.9863 26.351 19.1013Z" fill="#FFFEFC"/>
</svg>
